<svg width="720" height="376" viewBox="0 0 720 376" fill="none" xmlns="http://www.w3.org/2000/svg">
<path d="M0 55.1875C0 25 35.28 0.5 78.75 0.5H641.25C684.72 0.5 720 25 720 55.1875V320.812C720 335.317 711.703 349.227 696.935 359.482C682.166 369.738 662.136 375.5 641.25 375.5H78.75C57.8642 375.5 37.8338 369.738 23.0653 359.482C8.29685 349.227 0 335.317 0 320.812L0 55.1875ZM78.75 47.375C75.7663 47.375 72.9048 48.1981 70.7951 49.6632C68.6853 51.1284 67.5 53.1155 67.5 55.1875V320.812C67.5 325.125 72.54 328.625 78.75 328.625H641.25C644.234 328.625 647.095 327.802 649.205 326.337C651.315 324.872 652.5 322.884 652.5 320.812V55.1875C652.5 53.1155 651.315 51.1284 649.205 49.6632C647.095 48.1981 644.234 47.375 641.25 47.375H78.75Z" fill="black"/>
</svg>
